<svg id="Layer_1" data-name="Layer 1" xmlns="http://www.w3.org/2000/svg" viewBox="0 0 216 216"><defs><style>.cls-1{fill:#fff;}</style></defs><title>Artboard 2</title><path class="cls-1" d="M111.71,28.36l-.51.65L38.35,124.68H57.94l54-89,23.56,31.85,3-4Z"/><path class="cls-1" d="M137.86,62.61l-.33.43L90.79,124.41h12.58L138,67.28l19.61,26.51,2-2.64Z"/><path class="cls-1" d="M172.15,107.45h0L159.27,90.54l-.18.23-25.68,33.71h6.91s18.79-31,19-31.38l23.22,31.38h2.58Z"/><path class="cls-1" d="M51.73,147.36c0-4.08-1.74-10.92-13.43-10.92H27.1v34.82h9.36V158.1h1.23c.6,1.3,6,13.16,6,13.16H53.79S47.56,158,46.7,156.15C50,154.55,51.73,151.65,51.73,147.36Zm-13,3.14H36.46V144h2.29c3.19,0,3.63,1.63,3.63,3.23S41.94,150.5,38.75,150.5Zm36-14.51c-8.23,0-12.59,4.18-12.59,12.09v11.55c0,7.9,4.36,12.08,12.59,12.08s12.59-4.18,12.59-12.08V148.08C87.33,140.17,83,136,74.74,136ZM78,160.44c0,2.8-1.09,3.32-3.24,3.32s-3.23-.52-3.23-3.32V147.27c0-2.81,1.09-3.32,3.23-3.32s3.24.51,3.24,3.32ZM110.4,136c-8.24,0-12.59,4.18-12.59,12.09v11.55c0,7.9,4.35,12.08,12.59,12.08S123,167.53,123,159.63V157h-9.36v3.4c0,2.8-1.09,3.32-3.23,3.32s-3.24-.52-3.24-3.32V147.27c0-2.81,1.09-3.32,3.24-3.32s3.23.51,3.23,3.32v2.14H123v-1.33C123,140.17,118.63,136,110.4,136Zm50.7.45H150.51l-7.1,10.64V136.44h-9.35v34.82h9.35V160.53l1.28-1.74c1.4,2.67,6.58,12.47,6.58,12.47h10.54s-10.24-19.19-10.92-20.45Zm33.34,0h-8.12s-3.57,8-5,11.27c-1.51-3.25-5.21-11.27-5.21-11.27H165.94l10.59,20.8v14h9.35v-14c.27-.52,10.59-20.8,10.59-20.8Z"/><path class="cls-1" d="M27,179.47h5.8c5.11,0,7.35,1.18,7.35,3.81,0,1.63-.86,2.58-2.92,3.27,2.26.74,3.76,2,3.76,3.93,0,3.15-2.9,4.16-7.38,4.16H27Zm1.9,6.73h4.5c2.45,0,4.86-.59,4.86-2.82s-1.9-2.77-5.63-2.77H28.9Zm0,7.3h4.91c3.64,0,5.28-1,5.28-3.1,0-1.75-1.72-3.07-5.89-3.07H28.9Z"/><path class="cls-1" d="M71.81,194.64H69.74l-4.83-6.93H59.54v6.93H57.65V179.47h7c4.08,0,6.38,1.64,6.38,4.12,0,2-1.35,3.32-4.31,3.87Zm-12.27-8.07h5.11c2.76,0,4.48-1.11,4.48-3s-1.49-3-4.48-3H59.54Z"/><path class="cls-1" d="M92.77,179.47h2.9l6.56,15.17h-2l-2.1-5H90.27l-2.12,5h-2Zm4.91,9.08-3.45-7.94h0l-3.42,7.94Z"/><path class="cls-1" d="M117.33,179.47h3.19l9.85,12.65h.06V179.47h1.89v15.17h-1.95l-11.08-14h-.06v14h-1.9Z"/><path class="cls-1" d="M149.55,179.47h5.86c6.43,0,9,3.53,9,7.59s-2.59,7.58-9,7.58h-5.86Zm1.9,14h4c4.6,0,7.06-2.35,7.06-6.44s-2.46-6.45-7.06-6.45h-4Z"/><path class="cls-1" d="M180,190.4c.8,2.31,2.64,3.31,5.91,3.31,2.59,0,4.14-1.19,4.14-3,0-4.07-11.23-2.48-11.23-7.5,0-2.24,2.13-3.92,6-3.92,3.28,0,5.69,1.3,6.64,3.63l-1.64.35c-.74-1.68-2.35-2.85-5-2.85-2.41,0-4.07,1-4.07,2.79,0,1,.4,1.77,4.21,2.82,5.84,1.59,7,2.64,7,4.83,0,2.58-2.95,4-6.31,4-4,0-6.23-1.28-7.39-4.06Z"/></svg>